<svg width="50" height="50" viewBox="0 0 50 50" fill="none" xmlns="http://www.w3.org/2000/svg">
<path d="M16 7C15.4477 7 15 7.44772 15 8V19C15 19.5523 15.4477 20 16 20H20.6699L22.4019 18H17V9H33V18H27.5981L29.3301 20H34C34.5523 20 35 19.5523 35 19V8C35 7.44772 34.5523 7 34 7H16Z" fill="black"/>
<path d="M6 16.5C6 15.6716 6.67157 15 7.5 15H14V18H9V38H34.0189C34.1025 39.099 34.4594 40.1216 35.0218 41H7.5C6.67157 41 6 40.3284 6 39.5V16.5Z" fill="black"/>
<path d="M44 32.0218V16.5C44 15.6716 43.3284 15 42.5 15H36V18H41V31.0189C42.099 31.1025 43.1216 31.4594 44 32.0218Z" fill="black"/>
<path d="M25.9827 17.6347C25.4643 17.0361 24.5357 17.0361 24.0173 17.6347L20.3677 21.8489C19.6385 22.6909 20.2366 24 21.3504 24H28.6496C29.7634 24 30.3615 22.6909 29.6323 21.8489L25.9827 17.6347Z" fill="black"/>
<circle cx="40.5" cy="37.5" r="5.5" fill="#A42626"/>
</svg>
