<svg width="50" height="50" viewBox="0 0 50 50" fill="none" xmlns="http://www.w3.org/2000/svg">
<path d="M25 11.9995C21.8063 9.58399 17 11.8118 17 16.0241V20.9451C16.6717 20.9814 16.338 21 16 21C11.0294 21 7 16.9706 7 12C7 7.02944 11.0294 3 16 3C20.9704 3 24.9997 7.02916 25 11.9995Z" fill="black"/>
<path d="M22 16.0241L22 45.9759C22 45.9848 22.0108 45.9892 22.0171 45.9829L30.7871 37.2129C30.789 37.211 30.7915 37.21 30.7942 37.21L43.189 37.2132C43.198 37.2132 43.2024 37.2024 43.1961 37.1961L22.0171 16.0171C22.0108 16.0108 22 16.0152 22 16.0241Z" stroke="black" stroke-width="3"/>
</svg>
