<svg width="50" height="50" viewBox="0 0 50 50" fill="none" xmlns="http://www.w3.org/2000/svg">
<path d="M39.3591 22.0855L36.5 23.5352V22C36.5 20.3431 35.1569 19 33.5 19C31.8431 19 30.5 20.3431 30.5 22V25.5H27C25.3431 25.5 24 26.8431 24 28.5C24 28.9415 24.0954 29.3606 24.2666 29.7381L10.2259 36.8573C8.9196 37.5196 7.53576 36.1092 8.22292 34.8157L22.174 8.55476C22.6073 7.73924 23.6675 7.50513 24.4039 8.06239L39.586 19.5515C40.47 20.2205 40.3479 21.5842 39.3591 22.0855Z" fill="black"/>
<path d="M27 28.5L40 28.5M33.5 22L33.5 35" stroke="black" stroke-width="3" stroke-linecap="round"/>
<path d="M16 40H20.9091V41.6H17.6364V43.2H20.9091V44.8H17.6364V46.4H20.9091V48H16V40Z" fill="#C46A00"/>
<path d="M22.5455 40H24.1818V43.2H25.8182V40H27.4545V43.2H25.8182V44.8H27.4545V48H25.8182V44.8H24.1818V48H22.5455V44.8H24.1818V43.2H22.5455V40Z" fill="#C46A00"/>
<path fill-rule="evenodd" clip-rule="evenodd" d="M29.0909 40H34V41.6V43.2V44.8H30.7273V48H29.0909V41.6V40ZM30.7273 43.2V41.6H32.3636V43.2H30.7273Z" fill="#C46A00"/>
<path d="M32.3636 46.4V48H34V46.4H32.3636Z" fill="#C46A00"/>
</svg>
