<svg width="50" height="50" viewBox="0 0 50 50" fill="none" xmlns="http://www.w3.org/2000/svg">
<path d="M24 10C24 9.44772 24.4477 9 25 9C25.5523 9 26 9.44772 26 10V29C26 29.5523 25.5523 30 25 30C24.4477 30 24 29.5523 24 29V10Z" fill="black"/>
<path d="M25.704 29.9497C26.0945 30.3403 26.0945 30.9734 25.704 31.364C25.3134 31.7545 24.6803 31.7545 24.2897 31.364L18.6329 25.7071C18.2424 25.3166 18.2424 24.6834 18.6329 24.2929C19.0234 23.9024 19.6566 23.9024 20.0471 24.2929L25.704 29.9497Z" fill="black"/>
<path d="M25.704 31.364C25.3134 31.7545 24.6803 31.7545 24.2897 31.364C23.8992 30.9734 23.8992 30.3403 24.2897 29.9497L29.9466 24.2929C30.3371 23.9024 30.9703 23.9024 31.3608 24.2929C31.7513 24.6834 31.7513 25.3166 31.3608 25.7071L25.704 31.364Z" fill="black"/>
<path d="M6 16.5C6 15.6716 6.67157 15 7.5 15H17.5C18.3284 15 19 15.6716 19 16.5C19 17.3284 18.3284 18 17.5 18H7.5C6.67157 18 6 17.3284 6 16.5Z" fill="black"/>
<path d="M31 16.5C31 15.6716 31.6716 15 32.5 15H42.5C43.3284 15 44 15.6716 44 16.5C44 17.3284 43.3284 18 42.5 18H32.5C31.6716 18 31 17.3284 31 16.5Z" fill="black"/>
<path d="M6 42.5C6 41.6716 6.67157 41 7.5 41H42.5C43.3284 41 44 41.6716 44 42.5C44 43.3284 43.3284 44 42.5 44H7.5C6.67157 44 6 43.3284 6 42.5Z" fill="black"/>
<path d="M6 16.5C6 15.6716 6.67157 15 7.5 15C8.32843 15 9 15.6716 9 16.5V42.5C9 43.3284 8.32843 44 7.5 44C6.67157 44 6 43.3284 6 42.5V16.5Z" fill="black"/>
<path d="M41 16.5C41 15.6716 41.6716 15 42.5 15C43.3284 15 44 15.6716 44 16.5V42.5C44 43.3284 43.3284 44 42.5 44C41.6716 44 41 43.3284 41 42.5V16.5Z" fill="black"/>
</svg>
