<svg width="42" height="42" viewBox="0 0 42 42" fill="none" xmlns="http://www.w3.org/2000/svg">
<path d="M27.571 22.5429C27.9616 22.9334 27.9616 23.5666 27.571 23.9571C27.1805 24.3476 26.5474 24.3476 26.1568 23.9571L19.7929 17.5931C19.4023 17.2026 19.4023 16.5695 19.7929 16.1789C20.1834 15.7884 20.8166 15.7884 21.2071 16.1789L27.571 22.5429Z" fill="black"/>
<path d="M27.571 22.5429C27.9616 22.9334 27.9616 23.5666 27.571 23.9571C27.1805 24.3476 26.5474 24.3476 26.1568 23.9571L19.7929 17.5931C19.4023 17.2026 19.4023 16.5695 19.7929 16.1789C20.1834 15.7884 20.8166 15.7884 21.2071 16.1789L27.571 22.5429Z" fill="black"/>
<path d="M14.8431 23.9571C14.4526 24.3476 13.8194 24.3476 13.4289 23.9571C13.0384 23.5666 13.0384 22.9334 13.4289 22.5429L19.7929 16.1789C20.1834 15.7884 20.8166 15.7884 21.2071 16.1789C21.5976 16.5695 21.5976 17.2026 21.2071 17.5931L14.8431 23.9571Z" fill="black"/>
<path d="M14.8431 23.9571C14.4526 24.3476 13.8194 24.3476 13.4289 23.9571C13.0384 23.5666 13.0384 22.9334 13.4289 22.5429L19.7929 16.1789C20.1834 15.7884 20.8166 15.7884 21.2071 16.1789C21.5976 16.5695 21.5976 17.2026 21.2071 17.5931L14.8431 23.9571Z" fill="black"/>
</svg>
