<svg width="50" height="50" viewBox="0 0 50 50" fill="none" xmlns="http://www.w3.org/2000/svg">
<path d="M6 16.5C6 15.6716 6.67157 15 7.5 15H14V18H7.5C6.67157 18 6 17.3284 6 16.5Z" fill="black"/>
<path d="M36 15H42.5C43.3284 15 44 15.6716 44 16.5C44 17.3284 43.3284 18 42.5 18H36V15Z" fill="black"/>
<path d="M6 39.5C6 38.6716 6.67157 38 7.5 38H42.5C43.3284 38 44 38.6716 44 39.5C44 40.3284 43.3284 41 42.5 41H7.5C6.67157 41 6 40.3284 6 39.5Z" fill="black"/>
<path d="M6 16.5C6 15.6716 6.67157 15 7.5 15C8.32843 15 9 15.6716 9 16.5V39.5C9 40.3284 8.32843 41 7.5 41C6.67157 41 6 40.3284 6 39.5V16.5Z" fill="black"/>
<path d="M15 8C15 7.44772 15.4477 7 16 7C16.5523 7 17 7.44772 17 8V19C17 19.5523 16.5523 20 16 20C15.4477 20 15 19.5523 15 19V8Z" fill="black"/>
<path d="M33 8C33 7.44772 33.4477 7 34 7C34.5523 7 35 7.44772 35 8V19C35 19.5523 34.5523 20 34 20C33.4477 20 33 19.5523 33 19V8Z" fill="black"/>
<path d="M15 8C15 7.44772 15.4477 7 16 7H34C34.5523 7 35 7.44772 35 8C35 8.55228 34.5523 9 34 9H16C15.4477 9 15 8.55228 15 8Z" fill="black"/>
<path d="M41 16.5C41 15.6716 41.6716 15 42.5 15C43.3284 15 44 15.6716 44 16.5V39.5C44 40.3284 43.3284 41 42.5 41C41.6716 41 41 40.3284 41 39.5V16.5Z" fill="black"/>
<path d="M24.0173 17.6347C24.5357 17.0361 25.4643 17.0361 25.9827 17.6347L29.6323 21.849C30.3615 22.6909 29.7634 24 28.6496 24H21.3504C20.2366 24 19.6385 22.6909 20.3677 21.8489L24.0173 17.6347Z" fill="black"/>
<path d="M22.4019 18H16C15.4477 18 15 18.4477 15 19C15 19.5523 15.4477 20 16 20H20.6699L22.4019 18Z" fill="black"/>
<path d="M29.3301 20H34C34.5523 20 35 19.5523 35 19C35 18.4477 34.5523 18 34 18H27.5981L29.3301 20Z" fill="black"/>
</svg>
