<svg width="50" height="50" viewBox="0 0 50 50" fill="none" xmlns="http://www.w3.org/2000/svg">
<path d="M23.5 30L23.5 40H26.5L26.5 30H23.5Z" fill="black"/>
<path d="M26.5 20L26.5 9.99999L23.5 9.99999L23.5 20H26.5Z" fill="black"/>
<path d="M24.0045 6.18544C24.524 5.56681 25.476 5.56681 25.9955 6.18544L30.1344 11.114C30.8447 11.9598 30.2434 13.25 29.1389 13.25L20.8611 13.25C19.7566 13.25 19.1553 11.9598 19.8656 11.114L24.0045 6.18544Z" fill="black"/>
<path d="M25.9955 43.8145C25.476 44.4332 24.524 44.4332 24.0045 43.8145L19.8656 38.886C19.1553 38.0402 19.7566 36.75 20.8611 36.75H29.1389C30.2434 36.75 30.8447 38.0402 30.1344 38.886L25.9955 43.8145Z" fill="black"/>
<path d="M6.18544 25.9955C5.56681 25.476 5.56681 24.524 6.18544 24.0045L11.114 19.8656C11.9598 19.1553 13.25 19.7566 13.25 20.8611V29.1389C13.25 30.2434 11.9598 30.8447 11.114 30.1344L6.18544 25.9955Z" fill="black"/>
<path d="M43.8145 24.0045C44.4332 24.524 44.4332 25.476 43.8145 25.9955L38.886 30.1344C38.0402 30.8447 36.75 30.2434 36.75 29.1389V20.8611C36.75 19.7566 38.0402 19.1553 38.886 19.8656L43.8145 24.0045Z" fill="black"/>
<path d="M40 25L10 25" stroke="black" stroke-width="3"/>
</svg>
