<svg width="50" height="50" viewBox="0 0 50 50" fill="none" xmlns="http://www.w3.org/2000/svg">
<path d="M44 14.5C44 19.1944 40.1944 23 35.5 23C35.5 23 34 23 34 21.5C34 20 35.5 20 35.5 20C38.5376 20 41 17.5376 41 14.5C41 11.4624 38.5376 8.99999 35.5 8.99999C32.4624 8.99999 30 11.4624 30 14.5H27C27 9.80557 30.8056 5.99999 35.5 5.99999C40.1944 5.99999 44 9.80557 44 14.5Z" fill="black"/>
<path d="M29.4984 18.8028C28.9787 19.426 28.0213 19.426 27.5016 18.8028L24.6493 15.3826C23.9433 14.536 24.5453 13.25 25.6477 13.25L31.3523 13.25C32.4547 13.25 33.0567 14.536 32.3507 15.3826L29.4984 18.8028Z" fill="black"/>
<path d="M7.5 8.99999C8.32843 8.99999 9 9.67156 9 10.5L9 42.5C9 43.3284 8.32843 44 7.5 44C6.67157 44 6 43.3284 6 42.5L6 10.5C6 9.67156 6.67157 8.99999 7.5 8.99999Z" fill="black"/>
<path d="M6.50161 6.19716C7.02133 5.57397 7.97867 5.57397 8.49838 6.19716L11.3507 9.61738C12.0567 10.464 11.4547 11.75 10.3523 11.75L4.6477 11.75C3.54529 11.75 2.94326 10.464 3.64932 9.61738L6.50161 6.19716Z" fill="black"/>
<path d="M41 42.5C41 43.3284 40.3284 44 39.5 44H7.5C6.67157 44 6 43.3284 6 42.5C6 41.6716 6.67157 41 7.5 41L39.5 41C40.3284 41 41 41.6716 41 42.5Z" fill="black"/>
<path d="M43.8028 41.5016C44.426 42.0213 44.426 42.9787 43.8028 43.4984L40.3826 46.3507C39.536 47.0567 38.25 46.4547 38.25 45.3523V39.6477C38.25 38.5453 39.536 37.9433 40.3826 38.6493L43.8028 41.5016Z" fill="black"/>
<path d="M22.3131 27.7106C22.8989 28.2964 22.8989 29.2462 22.3131 29.832L10.182 41.9631C9.59619 42.5489 8.64645 42.5489 8.06066 41.9631C7.47487 41.3773 7.47487 40.4276 8.06066 39.8418L20.1918 27.7106C20.7776 27.1249 21.7273 27.1249 22.3131 27.7106Z" fill="black"/>
<path d="M22.2575 27.1576C22.7221 27.2094 23.0888 27.5761 23.1406 28.0407L23.5345 31.5737C23.6392 32.5134 22.502 33.0602 21.8335 32.3916L17.9066 28.4647C17.2381 27.7962 17.7849 26.659 18.7245 26.7638L22.2575 27.1576Z" fill="black"/>
</svg>
