<svg width="50" height="50" viewBox="0 0 50 50" fill="none" xmlns="http://www.w3.org/2000/svg">
<path d="M25.9937 25.6569C25.9937 26.2091 25.546 26.6569 24.9937 26.6569C24.4414 26.6569 23.9937 26.2091 23.9937 25.6569L23.9937 6.65685C23.9937 6.10457 24.4414 5.65685 24.9937 5.65685C25.546 5.65685 25.9937 6.10457 25.9937 6.65685L25.9937 25.6569Z" fill="black"/>
<path d="M24.2898 5.70711C23.8992 5.31658 23.8992 4.68342 24.2898 4.29289C24.6803 3.90237 25.3134 3.90237 25.704 4.29289L31.3608 9.94975C31.7513 10.3403 31.7513 10.9734 31.3608 11.364C30.9703 11.7545 30.3371 11.7545 29.9466 11.364L24.2898 5.70711Z" fill="black"/>
<path d="M24.2898 4.29289C24.6803 3.90237 25.3134 3.90237 25.704 4.29289C26.0945 4.68342 26.0945 5.31658 25.704 5.70711L20.0471 11.364C19.6566 11.7545 19.0234 11.7545 18.6329 11.364C18.2424 10.9734 18.2424 10.3403 18.6329 9.94975L24.2898 4.29289Z" fill="black"/>
<path d="M6 16.5C6 15.6716 6.67157 15 7.5 15H17.5C18.3284 15 19 15.6716 19 16.5C19 17.3284 18.3284 18 17.5 18H7.5C6.67157 18 6 17.3284 6 16.5Z" fill="black"/>
<path d="M31 16.5C31 15.6716 31.6716 15 32.5 15H42.5C43.3284 15 44 15.6716 44 16.5C44 17.3284 43.3284 18 42.5 18H32.5C31.6716 18 31 17.3284 31 16.5Z" fill="black"/>
<path d="M6 42.5C6 41.6716 6.67157 41 7.5 41H42.5C43.3284 41 44 41.6716 44 42.5C44 43.3284 43.3284 44 42.5 44H7.5C6.67157 44 6 43.3284 6 42.5Z" fill="black"/>
<path d="M6 16.5C6 15.6716 6.67157 15 7.5 15C8.32843 15 9 15.6716 9 16.5V42.5C9 43.3284 8.32843 44 7.5 44C6.67157 44 6 43.3284 6 42.5V16.5Z" fill="black"/>
<path d="M41 16.5C41 15.6716 41.6716 15 42.5 15C43.3284 15 44 15.6716 44 16.5V42.5C44 43.3284 43.3284 44 42.5 44C41.6716 44 41 43.3284 41 42.5V16.5Z" fill="black"/>
</svg>
