<svg width="50" height="50" viewBox="0 0 50 50" fill="none" xmlns="http://www.w3.org/2000/svg">
<path d="M6.5 11V13.5H17.6641C17.2462 14.2192 17 15.0709 17 16.0241V16.5H6.5V19H3.5V11H6.5Z" fill="black"/>
<path d="M29.5711 16.5H43.5V19H46.5V11H43.5V13.5H26.5711L29.5711 16.5Z" fill="black"/>
<path d="M22 16.0241L22 45.9759C22 45.9848 22.0108 45.9892 22.0171 45.9829L30.7871 37.2129C30.789 37.211 30.7915 37.21 30.7942 37.21L43.189 37.2132C43.198 37.2132 43.2024 37.2024 43.1961 37.1961L22.0171 16.0171C22.0108 16.0108 22 16.0152 22 16.0241Z" stroke="black" stroke-width="3"/>
</svg>
