<svg width="50" height="50" viewBox="0 0 50 50" fill="none" xmlns="http://www.w3.org/2000/svg">
<path d="M16.0854 13H18.9146C18.7087 12.4174 18.1531 12 17.5 12C16.8469 12 16.2913 12.4174 16.0854 13Z" fill="#A60000"/>
<path d="M19 16H16V39.5C16 40.3284 16.6716 41 17.5 41C18.3284 41 19 40.3284 19 39.5V16Z" fill="#A60000"/>
<path d="M31 16H34V39.5C34 40.3284 33.3284 41 32.5 41C31.6716 41 31 40.3284 31 39.5V16Z" fill="#A60000"/>
<path d="M33.9146 13H31.0854C31.2913 12.4174 31.8469 12 32.5 12C33.1531 12 33.7087 12.4174 33.9146 13Z" fill="#A60000"/>
<path d="M14 13.5C14 12.6716 14.6716 12 15.5 12H34.5C35.3284 12 36 12.6716 36 13.5C36 14.3284 35.3284 15 34.5 15H15.5C14.6716 15 14 14.3284 14 13.5Z" fill="#A60000"/>
<path d="M21 10C21 9.44772 21.4477 9 22 9H28C28.5523 9 29 9.44772 29 10C29 10.5523 28.5523 11 28 11H22C21.4477 11 21 10.5523 21 10Z" fill="#A60000"/>
<path d="M16 39.5C16 38.6716 16.6716 38 17.5 38H32.5C33.3284 38 34 38.6716 34 39.5C34 40.3284 33.3284 41 32.5 41H17.5C16.6716 41 16 40.3284 16 39.5Z" fill="#A60000"/>
</svg>
