<svg width="50" height="50" viewBox="0 0 50 50" fill="none" xmlns="http://www.w3.org/2000/svg">
<path d="M44 14.5C44 19.1944 40.1944 23 35.5 23C35.5 23 34 23 34 21.5C34 20 35.5 20 35.5 20C38.5376 20 41 17.5376 41 14.5C41 11.4624 38.5376 9 35.5 9C32.4624 9 30 11.4624 30 14.5H27C27 9.80558 30.8056 6 35.5 6C40.1944 6 44 9.80558 44 14.5Z" fill="black"/>
<path d="M29.4984 18.8028C28.9787 19.426 28.0213 19.426 27.5016 18.8028L24.6493 15.3826C23.9433 14.536 24.5453 13.25 25.6477 13.25L31.3523 13.25C32.4547 13.25 33.0567 14.536 32.3507 15.3826L29.4984 18.8028Z" fill="black"/>
<path d="M6 16.5C6 15.6716 6.67157 15 7.5 15H12.5C13.3284 15 14 15.6716 14 16.5C14 17.3284 13.3284 18 12.5 18H7.5C6.67157 18 6 17.3284 6 16.5Z" fill="black"/>
<path d="M7.5 23C6.67157 23 6 22.3284 6 21.5L6 16.5C6 15.6716 6.67157 15 7.5 15C8.32843 15 9 15.6716 9 16.5V21.5C9 22.3284 8.32843 23 7.5 23Z" fill="black"/>
<path d="M44 42.5C44 43.3284 43.3284 44 42.5 44H37.5C36.6716 44 36 43.3284 36 42.5C36 41.6716 36.6716 41 37.5 41H42.5C43.3284 41 44 41.6716 44 42.5Z" fill="black"/>
<path d="M42.5 36C43.3284 36 44 36.6716 44 37.5V42.5C44 43.3284 43.3284 44 42.5 44C41.6716 44 41 43.3284 41 42.5V37.5C41 36.6716 41.6716 36 42.5 36Z" fill="black"/>
<path d="M7.5 44C6.67157 44 6 43.3284 6 42.5L6 37.5C6 36.6716 6.67157 36 7.5 36C8.32843 36 9 36.6716 9 37.5L9 42.5C9 43.3284 8.32843 44 7.5 44Z" fill="black"/>
<path d="M14 42.5C14 43.3284 13.3284 44 12.5 44H7.5C6.67157 44 6 43.3284 6 42.5C6 41.6716 6.67157 41 7.5 41H12.5C13.3284 41 14 41.6716 14 42.5Z" fill="black"/>
<path d="M24 25C24 24.4477 24.4477 24 25 24C25.5523 24 26 24.4477 26 25V34C26 34.5523 25.5523 35 25 35C24.4477 35 24 34.5523 24 34V25Z" fill="black"/>
<path d="M29.5 28.5C30.0523 28.5 30.5 28.9477 30.5 29.5C30.5 30.0523 30.0523 30.5 29.5 30.5H20.5C19.9477 30.5 19.5 30.0523 19.5 29.5C19.5 28.9477 19.9477 28.5 20.5 28.5H29.5Z" fill="black"/>
</svg>
